<?xml version="1.0" encoding="utf-8"?>
<!-- Generator: Adobe Illustrator 16.0.0, SVG Export Plug-In . SVG Version: 6.00 Build 0)  -->
<!DOCTYPE svg PUBLIC "-//W3C//DTD SVG 1.1//EN" "http://www.w3.org/Graphics/SVG/1.1/DTD/svg11.dtd">
<svg version="1.1" id="Layer_1" xmlns="http://www.w3.org/2000/svg" xmlns:xlink="http://www.w3.org/1999/xlink" x="0px" y="0px"
	 width="280px" height="182px" viewBox="0 0 280 182" enable-background="new 0 0 280 182" xml:space="preserve">
<g>
	<g>
		<circle fill="#BDA664" cx="132.51" cy="25.854" r="1.271"/>
		<circle fill="#BDA664" cx="132.51" cy="153.492" r="1.271"/>
	</g>
	<g>
		
			<line fill="none" stroke="#BDA664" stroke-width="0.5" stroke-miterlimit="10" x1="143.217" y1="25.793" x2="145.793" y2="28.458"/>
		
			<line fill="none" stroke="#BDA664" stroke-width="0.5" stroke-miterlimit="10" x1="143.172" y1="28.415" x2="145.838" y2="25.837"/>
	</g>
	<g>
		
			<line fill="none" stroke="#BDA664" stroke-width="0.5" stroke-miterlimit="10" x1="143.217" y1="25.793" x2="145.793" y2="28.458"/>
		
			<line fill="none" stroke="#BDA664" stroke-width="0.5" stroke-miterlimit="10" x1="143.172" y1="28.415" x2="145.838" y2="25.837"/>
	</g>
	<g>
		
			<line fill="none" stroke="#BDA664" stroke-width="0.5" stroke-miterlimit="10" x1="119.264" y1="150.888" x2="121.84" y2="153.553"/>
		
			<line fill="none" stroke="#BDA664" stroke-width="0.5" stroke-miterlimit="10" x1="119.22" y1="153.508" x2="121.886" y2="150.932"/>
	</g>
	<g>
		
			<line fill="none" stroke="#BDA664" stroke-width="0.5" stroke-miterlimit="10" x1="119.264" y1="150.888" x2="121.84" y2="153.553"/>
		
			<line fill="none" stroke="#BDA664" stroke-width="0.5" stroke-miterlimit="10" x1="119.22" y1="153.508" x2="121.886" y2="150.932"/>
	</g>
	<g>
		
			<line fill="none" stroke="#BDA664" stroke-width="0.5" stroke-miterlimit="10" x1="166.837" y1="34.737" x2="168.197" y2="38.186"/>
		
			<line fill="none" stroke="#BDA664" stroke-width="0.5" stroke-miterlimit="10" x1="165.793" y1="37.142" x2="169.242" y2="35.782"/>
	</g>
	<g>
		
			<line fill="none" stroke="#BDA664" stroke-width="0.5" stroke-miterlimit="10" x1="166.837" y1="34.737" x2="168.197" y2="38.186"/>
		
			<line fill="none" stroke="#BDA664" stroke-width="0.5" stroke-miterlimit="10" x1="165.793" y1="37.142" x2="169.242" y2="35.782"/>
	</g>
	<g>
		<line fill="none" stroke="#BDA664" stroke-width="0.5" stroke-miterlimit="10" x1="117.813" y1="26.6" x2="121.216" y2="28.068"/>
		<line fill="none" stroke="#BDA664" stroke-width="0.5" stroke-miterlimit="10" x1="118.78" y1="29.035" x2="120.25" y2="25.632"/>
	</g>
	<g>
		<line fill="none" stroke="#BDA664" stroke-width="0.5" stroke-miterlimit="10" x1="117.813" y1="26.6" x2="121.216" y2="28.068"/>
		<line fill="none" stroke="#BDA664" stroke-width="0.5" stroke-miterlimit="10" x1="118.78" y1="29.035" x2="120.25" y2="25.632"/>
	</g>
	<g>
		
			<line fill="none" stroke="#BDA664" stroke-width="0.5" stroke-miterlimit="10" x1="143.843" y1="151.279" x2="147.246" y2="152.747"/>
		
			<line fill="none" stroke="#BDA664" stroke-width="0.5" stroke-miterlimit="10" x1="144.81" y1="153.714" x2="146.278" y2="150.311"/>
	</g>
	<g>
		
			<line fill="none" stroke="#BDA664" stroke-width="0.5" stroke-miterlimit="10" x1="143.843" y1="151.279" x2="147.246" y2="152.747"/>
		
			<line fill="none" stroke="#BDA664" stroke-width="0.5" stroke-miterlimit="10" x1="144.81" y1="153.714" x2="146.278" y2="150.311"/>
	</g>
	<g>
		<line fill="none" stroke="#BDA664" stroke-width="0.5" stroke-miterlimit="10" x1="94.437" y1="37.292" x2="98.144" y2="37.321"/>
		<line fill="none" stroke="#BDA664" stroke-width="0.5" stroke-miterlimit="10" x1="96.275" y1="39.16" x2="96.305" y2="35.453"/>
	</g>
	<g>
		<line fill="none" stroke="#BDA664" stroke-width="0.5" stroke-miterlimit="10" x1="94.437" y1="37.292" x2="98.144" y2="37.321"/>
		<line fill="none" stroke="#BDA664" stroke-width="0.5" stroke-miterlimit="10" x1="96.275" y1="39.16" x2="96.305" y2="35.453"/>
	</g>
	
		<text transform="matrix(1 0 0 1 105.1714 66.2515)" fill="#FFFFFF" font-family="'ITCFranklinGothicStd-BkXCp'" font-size="22.2582" letter-spacing="4">LÍNEA</text>
	<g>
		<g>
			<path fill="#BDA664" d="M8.187,118.195l3.183-0.288V97.702l-3.183,0.314v-1.809l9.547-0.949c5.569-0.554,7.703,2.184,7.703,5.206
				c0,2.913-1.844,5.092-4.484,6.142c3.255,0.529,5.171,2.17,5.171,5.302c0,3.68-2.965,6.75-7.956,7.198l-9.981,0.897V118.195z
				 M17.228,106.125c4.195-0.398,6.184-2.517,6.184-5.317c0-2.657-1.989-4.098-5.75-3.727l-4.231,0.418v8.987L17.228,106.125z
				 M18.241,117.284c3.833-0.347,5.858-2.604,5.858-5.226c0-3.202-2.604-4.595-6.871-4.191l-3.797,0.358v9.495L18.241,117.284z"/>
			<path fill="#BDA664" d="M40.63,105.072c0-7.071,5.135-13.042,12.042-13.73c6.798-0.677,11.897,4.363,11.897,11.39
				c0,7.138-5.135,13.108-12.042,13.728C45.729,117.07,40.63,112.032,40.63,105.072z M62.473,103.005
				c0-5.986-4.05-10.317-9.873-9.742c-5.822,0.576-9.873,5.634-9.873,11.537c0,5.94,4.05,10.267,9.873,9.74
				C58.423,114.014,62.473,108.954,62.473,103.005z"/>
			<path fill="#BDA664" d="M81.356,105.2V90.793l-3.183,0.314v-1.86L86.6,88.41v1.866l-3.255,0.321v14.232
				c0,4.657,2.351,6.717,6.473,6.345c4.123-0.373,6.546-2.84,6.546-7.483V89.312l-3.255,0.321v-1.871l8.426-0.838v1.876
				l-3.183,0.314v14.353c0,5.585-3.146,9.164-8.571,9.65C84.322,113.608,81.356,110.636,81.356,105.2z"/>
			<path fill="#BDA664" d="M120.092,108.057l3.363-0.305V86.561l-6.69,0.661v4l-1.989,0.193v-5.808l19.42-1.931v5.852l-1.989,0.193
				v-4.024l-6.69,0.661v21.207l3.363-0.305v1.896l-8.788,0.79V108.057z"/>
			<path fill="#BDA664" d="M148.052,105.523l3.363-0.305V83.876l-3.363,0.332v-1.91l8.787-0.874v1.917l-3.363,0.332v21.358
				l3.363-0.305v1.917l-8.787,0.79V105.523z"/>
			<path fill="#BDA664" d="M185.303,105.712c-1.157-0.67-2.423-0.944-3.797-1.054c-2.459-0.203-4.701-0.968-6.365-2.36
				c-2.531-2.084-4.086-5.641-4.086-9.57c0-7.437,5.135-13.69,12.042-14.379c6.799-0.677,11.898,4.647,11.898,12.035
				c0,6.183-3.472,11.783-9.186,13.501c0.831,0.235,1.591,0.672,2.351,1.146c1.88,1.151,3.109,1.857,4.81,1.707
				c1.157-0.103,1.808-0.434,2.748-1.139l0.796,1.758c-1.157,0.88-2.206,1.321-3.544,1.439
				C189.643,109.089,187.364,106.885,185.303,105.712z M192.897,90.66c0-6.293-4.051-10.867-9.873-10.292s-9.872,5.875-9.872,12.084
				c0,3.431,1.229,6.364,3.291,8.222c1.699,1.505,3.941,2.308,6.581,2.068C188.847,102.216,192.897,96.915,192.897,90.66z"/>
			<path fill="#BDA664" d="M211.78,93.059V77.917l-3.183,0.314v-1.954l8.426-0.838v1.96l-3.254,0.321v14.957
				c0,4.895,2.351,7.07,6.473,6.698c4.123-0.373,6.546-2.953,6.546-7.832V76.436l-3.255,0.321v-1.965l8.426-0.838v1.971
				l-3.182,0.314v15.081c0,5.867-3.146,9.613-8.571,10.1C214.745,101.909,211.78,98.771,211.78,93.059z"/>
			<path fill="#BDA664" d="M245.273,96.715l3.182-0.289V74.296l-3.182,0.314v-1.981l17.068-1.698v5.94l-1.988,0.193v-3.943
				l-9.837,0.971v9.804l8.064-0.767v1.99l-8.064,0.761v10.359l9.837-0.891v-3.944l1.988-0.183v5.939l-17.068,1.534V96.715z"/>
		</g>
	</g>
	<defs>
		<filter id="Adobe_OpacityMaskFilter" filterUnits="userSpaceOnUse" x="73.386" y="30.741" width="117.598" height="117.6">
			<feColorMatrix  type="matrix" values="1 0 0 0 0  0 1 0 0 0  0 0 1 0 0  0 0 0 1 0"/>
		</filter>
	</defs>
	<mask maskUnits="userSpaceOnUse" x="73.386" y="30.741" width="117.598" height="117.6" id="SVGID_1_">
		<g filter="url(#Adobe_OpacityMaskFilter)">
			<rect x="58.944" y="25.388" fill="#FFFFFF" width="151.206" height="132.306"/>
			<polygon points="201.75,108.038 65.244,122.738 65.244,83.396 201.75,68.693 			"/>
		</g>
	</mask>
	
		<circle mask="url(#SVGID_1_)" fill="none" stroke="#BDA664" stroke-width="1.4" stroke-miterlimit="10" cx="132.185" cy="89.541" r="58.099"/>
	<defs>
		<filter id="Adobe_OpacityMaskFilter_1_" filterUnits="userSpaceOnUse" x="61.928" y="19.283" width="140.511" height="140.513">
			<feColorMatrix  type="matrix" values="1 0 0 0 0  0 1 0 0 0  0 0 1 0 0  0 0 0 1 0"/>
		</filter>
	</defs>
	<mask maskUnits="userSpaceOnUse" x="61.928" y="19.283" width="140.511" height="140.513" id="SVGID_2_">
		<g filter="url(#Adobe_OpacityMaskFilter_1_)">
			<rect x="44.879" y="13.067" fill="#FFFFFF" width="180.244" height="157.714"/>
			<polygon points="215.108,111.59 52.388,129.113 52.388,82.214 215.108,64.69 			"/>
		</g>
	</mask>
	
		<circle mask="url(#SVGID_2_)" fill="none" stroke="#BDA664" stroke-width="2" stroke-miterlimit="10" cx="132.184" cy="89.541" r="69.256"/>
	<g>
		<g>
			<path fill="#FFFFFF" d="M135.57,128.264c0,0.857,0.617,1.167,1.111,1.167c0.857,0,1.442-0.738,1.442-1.539
				c0-1.903-2.339-3.657-5.015-3.657c-3.503,0-6.393,3.106-6.393,6.797c0,3.655,2.857,6.61,6.736,6.61
				c1.166,0,2.982-0.371,4.239-1.292l0.155-1.604c-1.445,0.992-2.764,1.449-4.184,1.449c-3.226,0-5.286-2.186-5.286-5.131
				c0-3.565,2.612-5.416,4.731-5.416c1.296,0,2.801,0.551,3.201,1.566C135.818,127.467,135.57,127.833,135.57,128.264z"/>
			<rect x="110.58" y="130.002" fill="#FFFFFF" width="12.951" height="1.505"/>
			<rect x="119.22" y="133.297" fill="#FFFFFF" width="4.311" height="1.531"/>
			<rect x="140.195" y="130.002" fill="#FFFFFF" width="12.953" height="1.505"/>
			<rect x="140.195" y="132.299" fill="#FFFFFF" width="8.617" height="0.268"/>
			<rect x="114.909" y="132.299" fill="#FFFFFF" width="8.622" height="0.268"/>
			<rect x="140.199" y="133.297" fill="#FFFFFF" width="4.306" height="1.531"/>
		</g>
	</g>
	<line fill="none" stroke="#BDA664" stroke-width="1.4" stroke-miterlimit="10" x1="32.201" y1="87.175" x2="237.345" y2="64.878"/>
	<line fill="none" stroke="#FFFFFF" stroke-miterlimit="10" x1="40.515" y1="82.241" x2="87.665" y2="77.117"/>
	<line fill="none" stroke="#FFFFFF" stroke-miterlimit="10" x1="201.42" y1="65.379" x2="221.801" y2="63.164"/>
	<line fill="none" stroke="#FFFFFF" stroke-miterlimit="10" x1="200.176" y1="62.618" x2="214.857" y2="61.023"/>
	<line fill="none" stroke="#FFFFFF" stroke-miterlimit="10" x1="198.922" y1="59.904" x2="210.346" y2="58.663"/>
	<line fill="none" stroke="#FFFFFF" stroke-miterlimit="10" x1="197.293" y1="57.204" x2="203.818" y2="56.494"/>
	<line fill="none" stroke="#FFFFFF" stroke-miterlimit="10" x1="163.736" y1="117.068" x2="210.887" y2="111.943"/>
	
		<line fill="none" stroke="#BDA664" stroke-width="1.4" stroke-miterlimit="10" x1="32.813" y1="126.929" x2="187.006" y2="110.17"/>
	<g>
		<circle fill="#BDA664" cx="87.383" cy="44.547" r="1.271"/>
		<circle fill="#BDA664" cx="177.637" cy="134.8" r="1.271"/>
	</g>
	<g>
		<circle fill="#BDA664" cx="87.384" cy="134.8" r="1.271"/>
		<circle fill="#BDA664" cx="177.638" cy="44.546" r="1.272"/>
	</g>
	<g>
		<circle fill="#BDA664" cx="106.988" cy="31.18" r="1.272"/>
		<circle fill="#BDA664" cx="158.032" cy="148.167" r="1.271"/>
	</g>
	<g>
		<circle fill="#BDA664" cx="73.102" cy="66.359" r="1.271"/>
	</g>
	<g>
		<circle fill="#BDA664" cx="109.197" cy="149.08" r="1.271"/>
		<circle fill="#BDA664" cx="155.825" cy="30.265" r="1.272"/>
	</g>
	<g>
		
			<line fill="none" stroke="#BDA664" stroke-width="0.5" stroke-miterlimit="10" x1="96.861" y1="141.16" x2="98.221" y2="144.607"/>
		
			<line fill="none" stroke="#BDA664" stroke-width="0.5" stroke-miterlimit="10" x1="95.817" y1="143.563" x2="99.265" y2="142.204"/>
	</g>
	<g>
		
			<line fill="none" stroke="#BDA664" stroke-width="0.5" stroke-miterlimit="10" x1="96.861" y1="141.16" x2="98.221" y2="144.607"/>
		
			<line fill="none" stroke="#BDA664" stroke-width="0.5" stroke-miterlimit="10" x1="95.817" y1="143.563" x2="99.265" y2="142.204"/>
	</g>
	<g>
		
			<line fill="none" stroke="#BDA664" stroke-width="0.5" stroke-miterlimit="10" x1="166.916" y1="142.025" x2="170.623" y2="142.055"/>
		
			<line fill="none" stroke="#BDA664" stroke-width="0.5" stroke-miterlimit="10" x1="168.754" y1="143.893" x2="168.783" y2="140.188"/>
	</g>
	<g>
		
			<line fill="none" stroke="#BDA664" stroke-width="0.5" stroke-miterlimit="10" x1="166.916" y1="142.025" x2="170.623" y2="142.055"/>
		
			<line fill="none" stroke="#BDA664" stroke-width="0.5" stroke-miterlimit="10" x1="168.754" y1="143.893" x2="168.783" y2="140.188"/>
	</g>
	<g>
		<line fill="none" stroke="#BDA664" stroke-width="0.5" stroke-miterlimit="10" x1="78.013" y1="54.706" x2="81.476" y2="53.388"/>
		<line fill="none" stroke="#BDA664" stroke-width="0.5" stroke-miterlimit="10" x1="80.403" y1="55.78" x2="79.083" y2="52.314"/>
	</g>
	<g>
		<line fill="none" stroke="#BDA664" stroke-width="0.5" stroke-miterlimit="10" x1="78.013" y1="54.706" x2="81.476" y2="53.388"/>
		<line fill="none" stroke="#BDA664" stroke-width="0.5" stroke-miterlimit="10" x1="80.403" y1="55.78" x2="79.083" y2="52.314"/>
	</g>
	<g>
		
			<line fill="none" stroke="#BDA664" stroke-width="0.5" stroke-miterlimit="10" x1="183.584" y1="125.958" x2="187.049" y2="124.64"/>
		
			<line fill="none" stroke="#BDA664" stroke-width="0.5" stroke-miterlimit="10" x1="185.975" y1="127.031" x2="184.656" y2="123.567"/>
	</g>
	<g>
		
			<line fill="none" stroke="#BDA664" stroke-width="0.5" stroke-miterlimit="10" x1="183.584" y1="125.958" x2="187.049" y2="124.64"/>
		
			<line fill="none" stroke="#BDA664" stroke-width="0.5" stroke-miterlimit="10" x1="185.975" y1="127.031" x2="184.656" y2="123.567"/>
	</g>
	<g>
		
			<line fill="none" stroke="#BDA664" stroke-width="0.5" stroke-miterlimit="10" x1="186.041" y1="53.184" x2="185.898" y2="56.888"/>
		
			<line fill="none" stroke="#BDA664" stroke-width="0.5" stroke-miterlimit="10" x1="184.118" y1="54.964" x2="187.823" y2="55.105"/>
	</g>
	<g>
		
			<line fill="none" stroke="#BDA664" stroke-width="0.5" stroke-miterlimit="10" x1="186.041" y1="53.184" x2="185.898" y2="56.888"/>
		
			<line fill="none" stroke="#BDA664" stroke-width="0.5" stroke-miterlimit="10" x1="184.118" y1="54.964" x2="187.823" y2="55.105"/>
	</g>
	<line fill="none" stroke="#FFFFFF" stroke-miterlimit="10" x1="70.466" y1="127.509" x2="50.085" y2="129.725"/>
	<line fill="none" stroke="#FFFFFF" stroke-miterlimit="10" x1="71.709" y1="130.27" x2="57.029" y2="131.865"/>
	<line fill="none" stroke="#FFFFFF" stroke-miterlimit="10" x1="73.365" y1="133.064" x2="61.941" y2="134.305"/>
	<line fill="none" stroke="#FFFFFF" stroke-miterlimit="10" x1="75.716" y1="135.523" x2="69.19" y2="136.233"/>
</g>
</svg>
