<?xml version="1.0" encoding="utf-8"?>
<!-- Generator: Adobe Illustrator 16.0.0, SVG Export Plug-In . SVG Version: 6.00 Build 0)  -->
<!DOCTYPE svg PUBLIC "-//W3C//DTD SVG 1.1//EN" "http://www.w3.org/Graphics/SVG/1.1/DTD/svg11.dtd">
<svg version="1.1" id="Layer_1" xmlns="http://www.w3.org/2000/svg" xmlns:xlink="http://www.w3.org/1999/xlink" x="0px" y="0px"
	 width="280px" height="182px" viewBox="0 0 280 182" enable-background="new 0 0 280 182" xml:space="preserve">
<g>
	<g>
		<g>
			<path fill="#FFFFFF" d="M147.197,130.718c0.074,1.257,1,1.653,1.723,1.612c1.259-0.072,2.049-1.201,1.981-2.372
				c-0.165-2.786-3.735-5.151-7.646-4.923c-5.126,0.299-9.088,5.088-8.773,10.487c0.311,5.347,4.74,9.427,10.414,9.096
				c1.707-0.099,4.332-0.796,6.094-2.251l0.09-2.357c-2.029,1.574-3.918,2.354-5.994,2.475c-4.721,0.275-7.923-2.744-8.174-7.055
				c-0.303-5.219,3.362-8.149,6.463-8.33c1.893-0.109,4.145,0.568,4.815,2.02C147.496,129.531,147.162,130.088,147.197,130.718z"/>
			
				<rect x="110.833" y="134.837" transform="matrix(-0.9983 0.0581 -0.0581 -0.9983 248.3394 264.6584)" fill="#FFFFFF" width="18.979" height="2.205"/>
			
				<rect x="123.761" y="139.291" transform="matrix(-0.9983 0.0582 -0.0582 -0.9983 261.8067 273.1947)" fill="#FFFFFF" width="6.321" height="2.244"/>
			
				<rect x="154.16" y="132.315" transform="matrix(-0.9983 0.058 -0.058 -0.9983 334.7711 257.1127)" fill="#FFFFFF" width="18.985" height="2.204"/>
			
				<rect x="154.309" y="135.86" transform="matrix(-0.9983 0.058 -0.058 -0.9983 328.8667 262.5672)" fill="#FFFFFF" width="12.627" height="0.393"/>
			
				<rect x="117.315" y="138.014" transform="matrix(0.9983 -0.0582 0.0582 0.9983 -7.8353 7.4307)" fill="#FFFFFF" width="12.633" height="0.392"/>
			
				<rect x="154.457" y="137.5" transform="matrix(-0.9983 0.0576 -0.0576 -0.9983 322.9426 267.9459)" fill="#FFFFFF" width="6.311" height="2.248"/>
		</g>
	</g>
	<g>
		<g>
			<g>
				<path fill="#FFFFFF" d="M109.62,60.165l-1.067-18.334l1.924-0.111l0.966,16.603l3.739-0.218l0.101,1.731L109.62,60.165z"/>
				<path fill="#FFFFFF" d="M120.867,38.688l2.856-2.096l0.964,1.404l-3.073,1.696L120.867,38.688z M122.322,59.427l-1.067-18.334
					l1.952-0.114l1.067,18.334L122.322,59.427z"/>
				<path fill="#FFFFFF" d="M137.788,58.527l-3.412-9.318c-0.227-0.592-0.986-2.728-1.334-3.976c0.064,0.629,0.34,3.482,0.374,4.06
					l0.55,9.457l-1.676,0.097l-1.068-18.334l1.649-0.096l3.372,9.594c0.235,0.705,0.887,2.431,1.307,3.952
					c-0.235-2.607-0.312-3.458-0.341-3.952l-0.571-9.814l1.676-0.098l1.067,18.334L137.788,58.527z"/>
				<path fill="#FFFFFF" d="M146.309,58.029l-1.066-18.307l5.966-0.347l0.101,1.732l-4.041,0.235l0.354,6.103l3.106-0.181
					l0.105,1.786l-3.107,0.181l0.404,6.956l4.262-0.249l0.1,1.732L146.309,58.029z"/>
				<path fill="#FFFFFF" d="M163.928,57.004l-1.166-5.366l-2.503,0.146l-0.509,5.463l-1.677,0.098l1.791-18.5l1.896-0.111
					l4.01,18.164L163.928,57.004z M162.473,50l-0.9-4.553c-0.433-2.237-0.528-2.921-0.713-4.178
					c-0.02,1.077-0.123,3.067-0.191,4.258l-0.34,4.598L162.473,50z"/>
			</g>
			<polyline fill="none" stroke="#FFFFFF" stroke-width="0.75" stroke-miterlimit="10" points="50.34,122.981 50.855,131.814 
				101.844,128.848 			"/>
			<polyline fill="none" stroke="#FFFFFF" stroke-width="0.75" stroke-miterlimit="10" points="232.748,112.384 233.261,121.195 
				182.273,124.164 			"/>
			<polyline fill="none" stroke="#FFFFFF" stroke-width="0.75" stroke-miterlimit="10" points="47.182,68.74 46.668,59.905 
				97.658,56.936 			"/>
			<polyline fill="none" stroke="#FFFFFF" stroke-width="0.75" stroke-miterlimit="10" points="229.588,58.096 229.074,49.284 
				178.085,52.253 			"/>
			<polyline fill="none" stroke="#FFFFFF" stroke-width="0.75" stroke-miterlimit="10" points="226.204,56.621 225.978,52.711 
				201.338,54.146 			"/>
			<polyline fill="none" stroke="#FFFFFF" stroke-width="0.75" stroke-miterlimit="10" points="229.561,114.26 229.788,118.168 
				205.15,119.604 			"/>
			<polyline fill="none" stroke="#FFFFFF" stroke-width="0.75" stroke-miterlimit="10" points="49.57,66.905 49.343,62.995 
				73.983,61.56 			"/>
			<polyline fill="none" stroke="#FFFFFF" stroke-width="0.75" stroke-miterlimit="10" points="52.926,124.543 53.153,128.451 
				77.794,127.018 			"/>
			
				<rect x="36.173" y="65.979" transform="matrix(-0.9983 0.0581 -0.0581 -0.9983 285.5491 172.0837)" fill="none" stroke="#BDA664" stroke-width="1.4" stroke-miterlimit="10" width="208.198" height="48.43"/>
			<g>
				<g>
					<path fill="#BDA664" d="M56.244,107.644l3.931-0.229l-1.452-24.927l-3.931,0.23l-0.13-2.234l11.035-0.642
						c6.121-0.357,10.974,2.946,11.297,8.486c0.329,5.673-3.658,9.536-10.046,9.908c-1.699,0.098-3.755,0.174-4.74,0.186
						l0.515,8.846l4.154-0.242l0.13,2.234l-10.632,0.619L56.244,107.644z M74.449,88.521c-0.258-4.422-3.977-6.715-8.444-6.457
						L61.27,82.34l0.806,13.848c1.076-0.018,3.042-0.088,4.831-0.19C71.775,95.713,74.701,92.854,74.449,88.521z"/>
					<path fill="#BDA664" d="M94.702,105.406l3.932-0.229L97.182,80.25l-3.931,0.229l-0.129-2.234l21.084-1.227l0.388,6.655
						l-2.457,0.144l-0.258-4.422l-12.151,0.707l0.644,11.034l9.961-0.579l0.13,2.233L100.5,93.37l0.68,11.657l12.149-0.707
						l-0.258-4.424l2.458-0.143l0.387,6.656l-21.085,1.229L94.702,105.406z"/>
					<path fill="#BDA664" d="M139.281,102.81l4.155-0.243l-1.458-25.015l-8.264,0.48l0.276,4.737l-2.457,0.141l-0.402-6.877
						l23.988-1.397l0.402,6.879l-2.457,0.144l-0.275-4.736l-8.266,0.482l1.455,25.016l4.156-0.241l0.13,2.233l-10.854,0.632
						L139.281,102.81z"/>
					<path fill="#BDA664" d="M173.809,100.8l4.153-0.241l-1.451-24.927l-4.155,0.242l-0.129-2.234l10.855-0.632l0.131,2.233
						l-4.155,0.241l1.452,24.929l4.152-0.244l0.131,2.236l-10.855,0.631L173.809,100.8z"/>
					<path fill="#BDA664" d="M208.336,98.789l4.155-0.242l-1.456-25.015l-8.265,0.48l0.276,4.735l-2.457,0.143l-0.399-6.879
						l23.987-1.397l0.4,6.88l-2.457,0.143l-0.275-4.734l-8.264,0.481l1.455,25.016l4.156-0.241l0.129,2.232l-10.855,0.633
						L208.336,98.789z"/>
				</g>
			</g>
			<g>
				
					<line fill="none" stroke="#FFFFFF" stroke-width="0.75" stroke-miterlimit="10" x1="247.771" y1="84.374" x2="276.422" y2="82.706"/>
				
					<line fill="none" stroke="#FFFFFF" stroke-width="0.75" stroke-miterlimit="10" x1="248.012" y1="88.516" x2="268.639" y2="87.315"/>
				
					<line fill="none" stroke="#FFFFFF" stroke-width="0.75" stroke-miterlimit="10" x1="247.529" y1="80.232" x2="268.158" y2="79.031"/>
				
					<line fill="none" stroke="#FFFFFF" stroke-width="0.75" stroke-miterlimit="10" x1="248.254" y1="92.658" x2="260.946" y2="91.919"/>
				
					<line fill="none" stroke="#FFFFFF" stroke-width="0.75" stroke-miterlimit="10" x1="247.289" y1="76.091" x2="259.982" y2="75.352"/>
				
					<line fill="none" stroke="#FFFFFF" stroke-width="0.75" stroke-miterlimit="10" x1="248.496" y1="96.8" x2="255.296" y2="96.403"/>
				
					<line fill="none" stroke="#FFFFFF" stroke-width="0.75" stroke-miterlimit="10" x1="247.047" y1="71.948" x2="253.848" y2="71.552"/>
				<line fill="none" stroke="#FFFFFF" stroke-width="0.75" stroke-miterlimit="10" x1="31.651" y1="96.957" x2="3" y2="98.625"/>
				
					<line fill="none" stroke="#FFFFFF" stroke-width="0.75" stroke-miterlimit="10" x1="31.893" y1="101.098" x2="11.264" y2="102.3"/>
				
					<line fill="none" stroke="#FFFFFF" stroke-width="0.75" stroke-miterlimit="10" x1="31.409" y1="92.815" x2="10.78" y2="94.016"/>
				
					<line fill="none" stroke="#FFFFFF" stroke-width="0.75" stroke-miterlimit="10" x1="32.134" y1="105.24" x2="19.437" y2="105.98"/>
				
					<line fill="none" stroke="#FFFFFF" stroke-width="0.75" stroke-miterlimit="10" x1="31.169" y1="88.672" x2="18.473" y2="89.412"/>
				
					<line fill="none" stroke="#FFFFFF" stroke-width="0.75" stroke-miterlimit="10" x1="32.374" y1="109.383" x2="25.574" y2="109.778"/>
				
					<line fill="none" stroke="#FFFFFF" stroke-width="0.75" stroke-miterlimit="10" x1="30.927" y1="84.53" x2="24.128" y2="84.926"/>
			</g>
		</g>
		<circle fill="#BDA664" cx="67.914" cy="51.827" r="2.523"/>
		<path fill="#BDA664" d="M75.395,40.687c0.059,1.009-0.71,1.875-1.719,1.934c-1.012,0.06-1.875-0.712-1.934-1.721
			c-0.059-1.009,0.709-1.874,1.721-1.933C74.472,38.908,75.336,39.678,75.395,40.687z"/>
		<circle fill="#BDA664" cx="81.405" cy="33.09" r="0.975"/>
		<circle fill="#BDA664" cx="207.71" cy="43.688" r="2.523"/>
		<circle fill="#BDA664" cx="200.813" cy="33.385" r="1.83"/>
		<path fill="#BDA664" d="M191.163,26.7c0.03,0.536,0.491,0.946,1.03,0.914c0.537-0.03,0.946-0.49,0.914-1.028
			c-0.029-0.537-0.492-0.947-1.027-0.916C191.541,25.702,191.131,26.161,191.163,26.7z"/>
		<circle fill="#BDA664" cx="72.817" cy="136.056" r="2.523"/>
		<circle fill="#BDA664" cx="79.714" cy="146.358" r="1.83"/>
		<path fill="#BDA664" d="M89.365,153.045c-0.031-0.537-0.491-0.949-1.03-0.916c-0.537,0.03-0.947,0.492-0.917,1.029
			c0.032,0.537,0.493,0.949,1.03,0.914C88.987,154.043,89.396,153.582,89.365,153.045z"/>
		<circle fill="#BDA664" cx="212.614" cy="127.917" r="2.523"/>
		<circle fill="#BDA664" cx="206.959" cy="138.95" r="1.83"/>
		<path fill="#BDA664" d="M198.149,146.71c-0.032-0.536,0.378-0.997,0.917-1.028c0.537-0.029,0.998,0.378,1.029,0.915
			c0.032,0.54-0.379,0.999-0.917,1.03C198.643,147.659,198.182,147.249,198.149,146.71z"/>
	</g>
	<g>
		<defs>
			
				<rect id="SVGID_1_" x="52.813" y="15.163" transform="matrix(0.9983 -0.0581 0.0581 0.9983 -1.7315 7.9868)" width="167.259" height="37.195"/>
		</defs>
		<clipPath id="SVGID_2_">
			<use xlink:href="#SVGID_1_"  overflow="visible"/>
		</clipPath>
		<path clip-path="url(#SVGID_2_)" fill="none" stroke="#BDA664" stroke-width="1.4" stroke-miterlimit="10" d="M75.104,56.679
			c11.369-22.403,34.007-38.333,60.895-39.898c40.246-2.343,74.772,28.383,77.115,68.628c2.344,40.245-28.383,74.772-68.63,77.114
			c-40.245,2.345-74.771-28.383-77.113-68.627C66.592,80.537,69.457,67.81,75.104,56.679"/>
	</g>
	<g>
		<defs>
			
				<rect id="SVGID_3_" x="59.419" y="128.634" transform="matrix(0.9983 -0.0581 0.0581 0.9983 -8.315 8.5625)" width="167.259" height="37.196"/>
		</defs>
		<clipPath id="SVGID_4_">
			<use xlink:href="#SVGID_3_"  overflow="visible"/>
		</clipPath>
		<path clip-path="url(#SVGID_4_)" fill="none" stroke="#BDA664" stroke-width="1.4" stroke-miterlimit="10" d="M79.465,131.587
			c13.891,20.933,38.227,34.127,65.115,32.562c40.244-2.344,70.97-36.87,68.627-77.115c-2.342-40.243-36.867-70.971-77.113-68.627
			c-40.246,2.343-70.973,36.869-68.63,77.114C68.241,108.877,72.565,121.186,79.465,131.587"/>
	</g>
</g>
</svg>
